<svg id="Layer_1" enable-background="new 0 0 512 512" height="512" viewBox="0 0 512 512" width="512" xmlns="http://www.w3.org/2000/svg"><g><circle cx="320.267" cy="256" fill="#003034" r="191.733"/><path d="m512 256c0 105.891-85.842 191.733-191.733 191.733s-191.734-85.842-191.734-191.733z" fill="#0a0a0a"/><path d="m368.467 447.733h-353.467c-8.284 0-15-6.716-15-15v-353.466c0-8.284 6.716-15 15-15h353.467c8.284 0 15 6.716 15 15v144.6c0 8.284-6.716 15-15 15-9.455 0-17.134 7.679-17.134 17.117 0 9.463 7.687 17.149 17.134 17.149 8.284 0 15 6.716 15 15v144.6c0 8.285-6.716 15-15 15z" fill="#bee75e"/><path d="m0 432.733c0 8.284 6.716 15 15 15h353.467c8.284 0 15-6.716 15-15v-144.6c0-8.284-6.716-15-15-15-9.442 0-17.124-7.677-17.133-17.133h-351.334z" fill="#00da80"/><path d="m143.533 351.333c-8.284 0-15-6.716-15-15v-128.533c0-8.284 6.716-15 15-15s15 6.716 15 15v128.534c0 8.284-6.716 14.999-15 14.999z" fill="#f0e6dc"/><path d="m143.533 351.333c8.284 0 15-6.716 15-15v-80.333h-30v80.333c0 8.285 6.716 15 15 15z" fill="#e6d7cd"/><path d="m272.066 351.333c-8.284 0-15-6.716-15-15v-128.533c0-8.284 6.716-15 15-15s15 6.716 15 15v128.534c0 8.284-6.715 14.999-15 14.999z" fill="#f0e6dc"/><path d="m272.066 351.333c8.284 0 15-6.716 15-15v-80.333h-30v80.333c0 8.285 6.716 15 15 15z" fill="#e6d7cd"/><path d="m111.4 383.467c-25.989 0-47.134-21.144-47.134-47.133s21.145-47.134 47.134-47.134 47.133 21.144 47.133 47.133-21.143 47.134-47.133 47.134z" fill="#f0e6dc"/><path d="m239.934 383.467c-25.989 0-47.134-21.144-47.134-47.133s21.145-47.133 47.134-47.133 47.133 21.144 47.133 47.133-21.144 47.133-47.133 47.133z" fill="#f0e6dc"/><path d="m272.066 222.8h-128.533c-8.284 0-15-6.716-15-15v-64.267c0-8.284 6.716-15 15-15h128.533c8.284 0 15 6.716 15 15v64.267c0 8.284-6.715 15-15 15z" fill="#faf5eb"/></g></svg>